<?xml version="1.0" encoding="UTF-8"?>
<svg id="Layer_2" data-name="Layer 2" xmlns="http://www.w3.org/2000/svg" viewBox="0 0 492.34 175.36">
  <defs>
    <style>
      .cls-1 {
        fill: #fff;
      }
    </style>
  </defs>
  <g id="Layer_1-2" data-name="Layer 1">
    <g>
      <path class="cls-1" d="M0,56.31c0-3.82.53-7.24,1.6-10.25,1.07-3,2.45-5.44,4.14-7.29,1.69-1.86,3.57-3.5,5.62-4.92,2.05-1.42,4.11-2.66,6.19-3.73,2.08-1.07,3.96-2.1,5.66-3.12,1.69-1.01,3.07-2.21,4.14-3.61s1.6-2.99,1.6-4.79c0-2.19-.56-3.85-1.68-5-1.12-1.15-2.64-1.72-4.55-1.72-2.29,0-4.25.77-5.86,2.29-1.61,1.53-2.61,3.63-2.99,6.31L.33,17.46C1.64,12.21,4.34,7.99,8.44,4.79,12.54,1.6,17.84,0,24.34,0c5.74,0,10.4,1.53,13.98,4.59,3.58,3.06,5.37,7.3,5.37,12.71,0,3.44-.71,6.43-2.13,8.98-1.42,2.54-3.27,4.59-5.53,6.15-2.27,1.56-4.59,2.98-6.97,4.26-2.38,1.29-4.78,2.8-7.21,4.55-2.43,1.75-4.28,3.63-5.53,5.66h28.61l-1.64,11.07H0v-1.64Z"/>
      <path class="cls-1" d="M90.9,58.45c-6.67,0-11.98-1.91-15.94-5.74-3.96-3.82-5.94-8.69-5.94-14.59,0-6.34,1.98-11.68,5.94-16.03s9.28-6.52,15.94-6.52c6.17,0,11.15,1.9,14.92,5.7,3.77,3.8,5.66,8.68,5.66,14.63,0,1.58-.08,2.87-.25,3.85h-28.12c.33,2.73,1.24,4.82,2.75,6.27,1.5,1.45,3.4,2.17,5.7,2.17,1.97,0,3.47-.52,4.51-1.56s1.91-2.46,2.62-4.26l12.79,2.87c-1.26,3.93-3.65,7.12-7.17,9.55-3.52,2.43-7.99,3.65-13.4,3.65ZM83.61,31.97h13.77c-.33-1.91-1.07-3.42-2.21-4.51-1.15-1.09-2.65-1.64-4.51-1.64-3.5,0-5.85,2.05-7.05,6.15Z"/>
      <path class="cls-1" d="M118.53,57.95V16.15h13.94v9.1c1.58-2.84,3.62-5.16,6.11-6.97,2.49-1.8,5.34-2.71,8.57-2.71,4.43,0,7.51,1.38,9.26,4.14,1.75,2.76,2.62,6.74,2.62,11.93v26.31h-13.93v-23.85c0-3.06-.42-5.25-1.27-6.56-.85-1.31-2.25-1.97-4.22-1.97s-3.72.94-5.08,2.83c-1.37,1.89-2.05,4.33-2.05,7.34v22.21h-13.94Z"/>
      <path class="cls-1" d="M196.73,57.95V13.69c-.98,2.79-2.46,4.81-4.43,6.07-1.97,1.26-4.59,1.89-7.87,1.89v-11.89c4.92,0,8.2-.68,9.84-2.05,1.64-1.37,2.46-3.74,2.46-7.13h14.35v57.38h-14.35Z"/>
      <path class="cls-1" d="M1.2,112.14v-31.61h10.88c3.31,0,5.78.68,7.41,2.03s2.44,3.25,2.44,5.69c0,1.63-.47,3.1-1.42,4.43-.95,1.33-2.21,2.21-3.77,2.66,2.08.36,3.76,1.23,5.06,2.6,1.29,1.37,1.94,3.11,1.94,5.22,0,2.83-.99,5.04-2.98,6.62-1.99,1.58-4.88,2.37-8.67,2.37H1.2ZM5.22,94.17h6.95c1.87,0,3.3-.47,4.29-1.42s1.49-2.24,1.49-3.86c0-3.4-2.02-5.1-6.05-5.1h-6.68v10.39ZM5.22,108.89h7.04c4.88,0,7.32-1.96,7.32-5.87,0-1.81-.64-3.21-1.92-4.2-1.28-.99-2.99-1.49-5.12-1.49h-7.32v11.56Z"/>
      <path class="cls-1" d="M42.52,97.01c0-1.54-.43-2.72-1.29-3.57-.86-.84-2.1-1.26-3.73-1.26-3.04,0-5.06,1.39-6.05,4.15l-3.52-.9c.6-1.87,1.76-3.39,3.48-4.58,1.72-1.19,3.82-1.78,6.32-1.78,2.77,0,4.91.69,6.41,2.08,1.5,1.38,2.26,3.36,2.26,5.92v15.08h-3.88v-4.29c-.84,1.45-2.02,2.57-3.52,3.39-1.51.81-3.12,1.22-4.83,1.22-2.02,0-3.7-.53-5.03-1.58-1.34-1.05-2.01-2.51-2.01-4.38,0-2.23.8-3.87,2.42-4.92,1.61-1.05,3.91-1.7,6.89-1.94,2.02-.18,3.5-.41,4.45-.7.95-.29,1.5-.77,1.65-1.47v-.45ZM31.23,106c0,1.21.43,2.11,1.29,2.71.86.6,1.92.9,3.18.9,1.72,0,3.24-.58,4.56-1.74,1.32-1.16,2.08-2.76,2.26-4.81v-2.75c-.93,1.05-2.62,1.7-5.06,1.94-2.17.18-3.75.52-4.74,1.02-.99.5-1.49,1.41-1.49,2.73Z"/>
      <path class="cls-1" d="M60.72,112.46c-2.77,0-5-.63-6.68-1.9-1.69-1.26-2.82-2.89-3.39-4.88l3.57-.9c1.02,3.16,3.22,4.74,6.59,4.74,1.57,0,2.78-.33,3.66-.99.87-.66,1.31-1.57,1.31-2.71,0-.96-.35-1.72-1.04-2.26s-1.75-.99-3.16-1.35l-3.66-.9c-2.17-.51-3.79-1.2-4.85-2.05-1.07-.86-1.6-2.11-1.6-3.77,0-1.93.75-3.48,2.26-4.65,1.5-1.17,3.49-1.76,5.96-1.76s4.55.54,6.14,1.62c1.6,1.08,2.69,2.54,3.3,4.38l-3.61.86c-.93-2.62-2.91-3.93-5.92-3.93-1.39,0-2.5.29-3.34.88-.84.59-1.26,1.39-1.26,2.42,0,.9.32,1.6.95,2.08.63.48,1.55.86,2.75,1.13l4.15.99c2.17.48,3.79,1.21,4.85,2.19,1.07.98,1.6,2.3,1.6,3.95,0,2.05-.75,3.7-2.26,4.95-1.5,1.25-3.61,1.87-6.32,1.87Z"/>
      <path class="cls-1" d="M83.66,112.46c-3.28,0-5.95-1.06-7.99-3.18-2.05-2.12-3.07-4.96-3.07-8.51,0-3.31,1-6.09,3-8.33,2-2.24,4.64-3.36,7.92-3.36,3.01,0,5.45.99,7.32,2.96,1.87,1.97,2.8,4.45,2.8,7.43,0,.6-.04,1.17-.14,1.72h-16.93c.09,2.62.8,4.65,2.14,6.1s3.03,2.17,5.08,2.17c2.98,0,5.09-1.6,6.32-4.79l3.52.86c-.63,1.99-1.8,3.64-3.5,4.97-1.7,1.33-3.86,1.99-6.48,1.99ZM76.8,98.28h12.92c-.15-1.81-.79-3.29-1.92-4.45-1.13-1.16-2.58-1.74-4.36-1.74s-3.21.56-4.38,1.67c-1.17,1.11-1.93,2.62-2.26,4.52Z"/>
      <path class="cls-1" d="M127.19,112.14v-4.88c-1.63,3.46-4.32,5.19-8.08,5.19-2.83,0-5.13-1.07-6.91-3.21-1.78-2.14-2.66-4.98-2.66-8.54s.92-6.34,2.75-8.47c1.84-2.12,4.09-3.18,6.77-3.18,1.84,0,3.46.46,4.85,1.38,1.4.92,2.49,2.21,3.27,3.86v-13.77h3.88v31.61h-3.88ZM113.55,100.72c0,2.65.6,4.76,1.81,6.32,1.2,1.57,2.8,2.35,4.79,2.35s3.73-.8,5.04-2.39c1.31-1.59,1.96-3.64,1.96-6.14s-.66-4.61-1.99-6.25c-1.33-1.64-2.97-2.46-4.92-2.46s-3.6.78-4.83,2.33c-1.24,1.55-1.85,3.64-1.85,6.25Z"/>
      <path class="cls-1" d="M147.06,112.46c-3.28,0-5.95-1.06-7.99-3.18-2.05-2.12-3.07-4.96-3.07-8.51,0-3.31,1-6.09,3-8.33,2-2.24,4.64-3.36,7.92-3.36,3.01,0,5.45.99,7.32,2.96,1.87,1.97,2.8,4.45,2.8,7.43,0,.6-.04,1.17-.14,1.72h-16.93c.09,2.62.8,4.65,2.14,6.1s3.03,2.17,5.08,2.17c2.98,0,5.09-1.6,6.32-4.79l3.52.86c-.63,1.99-1.8,3.64-3.5,4.97-1.7,1.33-3.86,1.99-6.48,1.99ZM140.2,98.28h12.92c-.15-1.81-.79-3.29-1.92-4.45-1.13-1.16-2.58-1.74-4.36-1.74s-3.21.56-4.38,1.67c-1.17,1.11-1.93,2.62-2.26,4.52Z"/>
      <path class="cls-1" d="M188.52,112.46c-4.67,0-8.37-1.47-11.11-4.43-2.74-2.95-4.11-6.85-4.11-11.7s1.38-8.67,4.13-11.65c2.75-2.98,6.36-4.47,10.81-4.47,3.37,0,6.22.94,8.56,2.82,2.33,1.88,3.91,4.42,4.72,7.61l-3.88.95c-.63-2.44-1.77-4.37-3.41-5.8-1.64-1.43-3.65-2.14-6.03-2.14-3.22,0-5.82,1.15-7.79,3.45s-2.96,5.34-2.96,9.1.99,6.95,2.98,9.3c1.99,2.35,4.68,3.52,8.08,3.52,2.35,0,4.34-.68,5.98-2.05,1.64-1.37,2.75-3.27,3.32-5.71l3.84.99c-.81,3.07-2.39,5.54-4.72,7.41-2.33,1.87-5.14,2.8-8.42,2.8Z"/>
      <path class="cls-1" d="M219.95,97.01c0-1.54-.43-2.72-1.29-3.57-.86-.84-2.1-1.26-3.73-1.26-3.04,0-5.06,1.39-6.05,4.15l-3.52-.9c.6-1.87,1.76-3.39,3.48-4.58,1.72-1.19,3.82-1.78,6.32-1.78,2.77,0,4.91.69,6.41,2.08,1.5,1.38,2.26,3.36,2.26,5.92v15.08h-3.88v-4.29c-.84,1.45-2.02,2.57-3.52,3.39-1.51.81-3.12,1.22-4.83,1.22-2.02,0-3.7-.53-5.03-1.58-1.34-1.05-2.01-2.51-2.01-4.38,0-2.23.8-3.87,2.42-4.92,1.61-1.05,3.91-1.7,6.89-1.94,2.02-.18,3.5-.41,4.45-.7.95-.29,1.5-.77,1.65-1.47v-.45ZM208.66,106c0,1.21.43,2.11,1.29,2.71.86.6,1.92.9,3.18.9,1.72,0,3.24-.58,4.56-1.74,1.32-1.16,2.08-2.76,2.26-4.81v-2.75c-.93,1.05-2.62,1.7-5.06,1.94-2.17.18-3.75.52-4.74,1.02-.99.5-1.49,1.41-1.49,2.73Z"/>
      <path class="cls-1" d="M230.06,112.14v-22.76h3.88v4.61c1.69-3.28,4.15-4.92,7.41-4.92s5.24,1.72,5.78,5.15c1.72-3.43,4.23-5.15,7.54-5.15,3.91,0,5.87,2.42,5.87,7.27v15.81h-3.84v-14.95c0-3.43-1.16-5.15-3.48-5.15-1.72,0-3.14.83-4.27,2.48-1.13,1.66-1.69,3.4-1.69,5.24v12.37h-3.88v-14.95c0-3.43-1.16-5.15-3.48-5.15-1.72,0-3.14.83-4.27,2.48-1.13,1.66-1.69,3.4-1.69,5.24v12.37h-3.88Z"/>
      <path class="cls-1" d="M280.46,97.01c0-1.54-.43-2.72-1.29-3.57-.86-.84-2.1-1.26-3.73-1.26-3.04,0-5.06,1.39-6.05,4.15l-3.52-.9c.6-1.87,1.76-3.39,3.48-4.58,1.72-1.19,3.82-1.78,6.32-1.78,2.77,0,4.91.69,6.41,2.08,1.5,1.38,2.26,3.36,2.26,5.92v15.08h-3.88v-4.29c-.84,1.45-2.02,2.57-3.52,3.39-1.51.81-3.12,1.22-4.83,1.22-2.02,0-3.7-.53-5.03-1.58-1.34-1.05-2.01-2.51-2.01-4.38,0-2.23.8-3.87,2.42-4.92,1.61-1.05,3.91-1.7,6.89-1.94,2.02-.18,3.5-.41,4.45-.7.95-.29,1.5-.77,1.65-1.47v-.45ZM269.17,106c0,1.21.43,2.11,1.29,2.71.86.6,1.92.9,3.18.9,1.72,0,3.24-.58,4.56-1.74,1.32-1.16,2.08-2.76,2.26-4.81v-2.75c-.93,1.05-2.62,1.7-5.06,1.94-2.17.18-3.75.52-4.74,1.02-.99.5-1.49,1.41-1.49,2.73Z"/>
      <path class="cls-1" d="M8.25,162.13v-8.31H.03v-3.12h8.22v-8.26h3.34v8.26h8.17v3.12h-8.17v8.31h-3.34Z"/>
      <path class="cls-1" d="M47.4,166.65c-3.28,0-5.95-1.06-7.99-3.18-2.05-2.12-3.07-4.96-3.07-8.51,0-3.31,1-6.09,3-8.33,2-2.24,4.64-3.36,7.92-3.36,3.01,0,5.45.99,7.32,2.96,1.87,1.97,2.8,4.45,2.8,7.43,0,.6-.04,1.17-.14,1.72h-16.93c.09,2.62.8,4.65,2.14,6.1s3.03,2.17,5.08,2.17c2.98,0,5.09-1.6,6.32-4.79l3.52.86c-.63,1.99-1.8,3.64-3.5,4.97-1.7,1.33-3.86,1.99-6.48,1.99ZM40.53,152.47h12.92c-.15-1.81-.79-3.29-1.92-4.45-1.13-1.16-2.58-1.74-4.36-1.74s-3.21.56-4.38,1.67c-1.17,1.11-1.93,2.62-2.26,4.52Z"/>
      <path class="cls-1" d="M70.65,166.65c-2.77,0-5-.63-6.68-1.9-1.69-1.26-2.82-2.89-3.39-4.88l3.57-.9c1.02,3.16,3.22,4.74,6.59,4.74,1.57,0,2.78-.33,3.66-.99.87-.66,1.31-1.57,1.31-2.71,0-.96-.35-1.72-1.04-2.26s-1.75-.99-3.16-1.35l-3.66-.9c-2.17-.51-3.79-1.2-4.85-2.05-1.07-.86-1.6-2.11-1.6-3.77,0-1.93.75-3.48,2.26-4.65,1.5-1.17,3.49-1.76,5.96-1.76s4.55.54,6.14,1.62c1.6,1.08,2.69,2.54,3.3,4.38l-3.61.86c-.93-2.62-2.91-3.93-5.92-3.93-1.39,0-2.5.29-3.34.88-.84.59-1.26,1.39-1.26,2.42,0,.9.32,1.6.95,2.08.63.48,1.55.86,2.75,1.13l4.15.99c2.17.48,3.79,1.21,4.85,2.19,1.07.98,1.6,2.3,1.6,3.95,0,2.05-.75,3.7-2.26,4.95-1.5,1.25-3.61,1.87-6.32,1.87Z"/>
      <path class="cls-1" d="M84.16,175.36v-31.79h3.84v4.79c1.63-3.4,4.3-5.1,8.04-5.1,2.83,0,5.13,1.07,6.91,3.21,1.78,2.14,2.66,4.98,2.66,8.53s-.92,6.34-2.75,8.47c-1.84,2.12-4.09,3.18-6.77,3.18-1.81,0-3.41-.44-4.81-1.33-1.4-.89-2.49-2.16-3.27-3.82v13.86h-3.84ZM87.99,154.86c0,2.53.66,4.61,1.99,6.25,1.32,1.64,2.96,2.46,4.92,2.46s3.6-.77,4.83-2.33c1.23-1.55,1.85-3.64,1.85-6.25s-.6-4.76-1.81-6.32-2.8-2.35-4.79-2.35-3.73.8-5.04,2.39-1.96,3.64-1.96,6.14Z"/>
      <path class="cls-1" d="M124.21,151.2c0-1.54-.43-2.72-1.29-3.57-.86-.84-2.1-1.26-3.73-1.26-3.04,0-5.06,1.39-6.05,4.15l-3.52-.9c.6-1.87,1.76-3.39,3.48-4.58,1.72-1.19,3.82-1.78,6.32-1.78,2.77,0,4.91.69,6.41,2.08,1.5,1.38,2.26,3.36,2.26,5.92v15.08h-3.88v-4.29c-.84,1.45-2.02,2.57-3.52,3.39-1.51.81-3.12,1.22-4.83,1.22-2.02,0-3.7-.53-5.03-1.58-1.34-1.05-2.01-2.51-2.01-4.38,0-2.23.8-3.87,2.42-4.92,1.61-1.05,3.91-1.7,6.89-1.94,2.02-.18,3.5-.41,4.45-.7.95-.29,1.5-.77,1.65-1.47v-.45ZM112.92,160.19c0,1.21.43,2.11,1.29,2.71.86.6,1.92.9,3.18.9,1.72,0,3.24-.58,4.56-1.74,1.32-1.16,2.08-2.76,2.26-4.81v-2.75c-.93,1.05-2.62,1.7-5.06,1.94-2.17.18-3.75.52-4.74,1.02-.99.5-1.49,1.41-1.49,2.73Z"/>
      <path class="cls-1" d="M143.94,166.65c-3.16,0-5.82-1.07-7.97-3.21-2.15-2.14-3.23-4.97-3.23-8.49s1.04-6.39,3.12-8.51c2.08-2.12,4.73-3.18,7.95-3.18,2.5,0,4.63.68,6.39,2.03,1.76,1.36,2.91,3.12,3.45,5.28l-3.79.95c-.39-1.63-1.12-2.89-2.19-3.79-1.07-.9-2.4-1.36-4-1.36-2.02,0-3.67.78-4.94,2.35-1.28,1.57-1.92,3.61-1.92,6.14,0,2.71.69,4.83,2.08,6.37s3.12,2.3,5.19,2.3c1.5,0,2.79-.47,3.86-1.4,1.07-.93,1.84-2.2,2.33-3.79l3.61.9c-.63,2.17-1.81,3.94-3.52,5.33s-3.85,2.08-6.41,2.08Z"/>
      <path class="cls-1" d="M158.12,140.41v-4.56h4.06v4.56h-4.06ZM158.21,166.33v-22.76h3.84v22.76h-3.84Z"/>
      <path class="cls-1" d="M186.01,163.4c-2.09,2.14-4.73,3.21-7.92,3.21s-5.83-1.07-7.93-3.21c-2.09-2.14-3.14-4.95-3.14-8.44s1.04-6.31,3.14-8.47,4.73-3.23,7.93-3.23,5.83,1.08,7.92,3.23c2.09,2.15,3.14,4.97,3.14,8.47s-1.05,6.31-3.14,8.44ZM173,148.63c-1.28,1.51-1.92,3.61-1.92,6.32s.64,4.82,1.92,6.32c1.28,1.51,2.97,2.26,5.08,2.26s3.84-.75,5.12-2.26c1.28-1.5,1.92-3.61,1.92-6.32s-.64-4.82-1.92-6.32c-1.28-1.5-2.99-2.26-5.12-2.26s-3.8.75-5.08,2.26Z"/>
      <path class="cls-1" d="M222.52,166.33v-4.88c-1.63,3.46-4.32,5.19-8.08,5.19-2.83,0-5.13-1.07-6.91-3.21-1.78-2.14-2.66-4.98-2.66-8.54s.92-6.34,2.75-8.47c1.84-2.12,4.09-3.18,6.77-3.18,1.84,0,3.46.46,4.85,1.38,1.4.92,2.49,2.21,3.27,3.86v-13.77h3.88v31.61h-3.88ZM208.88,154.91c0,2.65.6,4.76,1.81,6.32,1.2,1.57,2.8,2.35,4.79,2.35s3.73-.8,5.04-2.39c1.31-1.59,1.96-3.64,1.96-6.14s-.66-4.61-1.99-6.25c-1.33-1.64-2.97-2.46-4.92-2.46s-3.6.78-4.83,2.33c-1.24,1.55-1.85,3.64-1.85,6.25Z"/>
      <path class="cls-1" d="M242.39,166.65c-3.28,0-5.95-1.06-7.99-3.18-2.05-2.12-3.07-4.96-3.07-8.51,0-3.31,1-6.09,3-8.33,2-2.24,4.64-3.36,7.92-3.36,3.01,0,5.45.99,7.32,2.96,1.87,1.97,2.8,4.45,2.8,7.43,0,.6-.04,1.17-.14,1.72h-16.93c.09,2.62.8,4.65,2.14,6.1s3.03,2.17,5.08,2.17c2.98,0,5.09-1.6,6.32-4.79l3.52.86c-.63,1.99-1.8,3.64-3.5,4.97-1.7,1.33-3.86,1.99-6.48,1.99ZM235.52,152.47h12.92c-.15-1.81-.79-3.29-1.92-4.45-1.13-1.16-2.58-1.74-4.36-1.74s-3.21.56-4.38,1.67c-1.17,1.11-1.93,2.62-2.26,4.52Z"/>
      <path class="cls-1" d="M283.53,151.2c0-1.54-.43-2.72-1.29-3.57-.86-.84-2.1-1.26-3.73-1.26-3.04,0-5.06,1.39-6.05,4.15l-3.52-.9c.6-1.87,1.76-3.39,3.48-4.58,1.72-1.19,3.82-1.78,6.32-1.78,2.77,0,4.91.69,6.41,2.08,1.5,1.38,2.26,3.36,2.26,5.92v15.08h-3.88v-4.29c-.84,1.45-2.02,2.57-3.52,3.39-1.51.81-3.12,1.22-4.83,1.22-2.02,0-3.7-.53-5.03-1.58-1.34-1.05-2.01-2.51-2.01-4.38,0-2.23.8-3.87,2.42-4.92,1.61-1.05,3.91-1.7,6.89-1.94,2.02-.18,3.5-.41,4.45-.7.95-.29,1.5-.77,1.65-1.47v-.45ZM272.24,160.19c0,1.21.43,2.11,1.29,2.71.86.6,1.92.9,3.18.9,1.72,0,3.24-.58,4.56-1.74,1.32-1.16,2.08-2.76,2.26-4.81v-2.75c-.93,1.05-2.62,1.7-5.06,1.94-2.17.18-3.75.52-4.74,1.02-.99.5-1.49,1.41-1.49,2.73Z"/>
      <path class="cls-1" d="M293.6,166.33v-31.61h3.88v31.61h-3.88Z"/>
      <path class="cls-1" d="M304.16,166.33v-22.76h3.88v4.61c1.69-3.28,4.15-4.92,7.41-4.92s5.24,1.72,5.78,5.15c1.72-3.43,4.23-5.15,7.54-5.15,3.91,0,5.87,2.42,5.87,7.27v15.81h-3.84v-14.95c0-3.43-1.16-5.15-3.48-5.15-1.72,0-3.14.83-4.27,2.48-1.13,1.66-1.69,3.4-1.69,5.24v12.37h-3.88v-14.95c0-3.43-1.16-5.15-3.48-5.15-1.72,0-3.14.83-4.27,2.48-1.13,1.66-1.69,3.4-1.69,5.24v12.37h-3.88Z"/>
      <path class="cls-1" d="M354.56,151.2c0-1.54-.43-2.72-1.29-3.57-.86-.84-2.1-1.26-3.73-1.26-3.04,0-5.06,1.39-6.05,4.15l-3.52-.9c.6-1.87,1.76-3.39,3.48-4.58,1.72-1.19,3.82-1.78,6.32-1.78,2.77,0,4.91.69,6.41,2.08,1.5,1.38,2.26,3.36,2.26,5.92v15.08h-3.88v-4.29c-.84,1.45-2.02,2.57-3.52,3.39-1.51.81-3.12,1.22-4.83,1.22-2.02,0-3.7-.53-5.03-1.58-1.34-1.05-2.01-2.51-2.01-4.38,0-2.23.8-3.87,2.42-4.92,1.61-1.05,3.91-1.7,6.89-1.94,2.02-.18,3.5-.41,4.45-.7.95-.29,1.5-.77,1.65-1.47v-.45ZM343.27,160.19c0,1.21.43,2.11,1.29,2.71.86.6,1.92.9,3.18.9,1.72,0,3.24-.58,4.56-1.74,1.32-1.16,2.08-2.76,2.26-4.81v-2.75c-.93,1.05-2.62,1.7-5.06,1.94-2.17.18-3.75.52-4.74,1.02-.99.5-1.49,1.41-1.49,2.73Z"/>
      <path class="cls-1" d="M374.29,166.65c-3.16,0-5.82-1.07-7.97-3.21-2.15-2.14-3.23-4.97-3.23-8.49s1.04-6.39,3.12-8.51c2.08-2.12,4.73-3.18,7.95-3.18,2.5,0,4.63.68,6.39,2.03,1.76,1.36,2.91,3.12,3.45,5.28l-3.79.95c-.39-1.63-1.12-2.89-2.19-3.79-1.07-.9-2.4-1.36-4-1.36-2.02,0-3.67.78-4.94,2.35-1.28,1.57-1.92,3.61-1.92,6.14,0,2.71.69,4.83,2.08,6.37s3.12,2.3,5.19,2.3c1.5,0,2.79-.47,3.86-1.4,1.07-.93,1.84-2.2,2.33-3.79l3.61.9c-.63,2.17-1.81,3.94-3.52,5.33s-3.85,2.08-6.41,2.08Z"/>
      <path class="cls-1" d="M398.23,166.65c-3.28,0-5.95-1.06-7.99-3.18-2.05-2.12-3.07-4.96-3.07-8.51,0-3.31,1-6.09,3-8.33,2-2.24,4.64-3.36,7.92-3.36,3.01,0,5.45.99,7.32,2.96,1.87,1.97,2.8,4.45,2.8,7.43,0,.6-.04,1.17-.14,1.72h-16.93c.09,2.62.8,4.65,2.14,6.1s3.03,2.17,5.08,2.17c2.98,0,5.09-1.6,6.32-4.79l3.52.86c-.63,1.99-1.8,3.64-3.5,4.97-1.7,1.33-3.86,1.99-6.48,1.99ZM391.36,152.47h12.92c-.15-1.81-.79-3.29-1.92-4.45-1.13-1.16-2.58-1.74-4.36-1.74s-3.21.56-4.38,1.67c-1.17,1.11-1.93,2.62-2.26,4.52Z"/>
      <path class="cls-1" d="M413.36,166.33v-22.76h3.84v5.1c.93-1.63,2.14-2.94,3.61-3.93,1.47-.99,3.13-1.49,4.97-1.49,4.18,0,6.28,2.65,6.28,7.95v15.13h-3.84v-14.63c0-1.9-.35-3.24-1.06-4.04-.71-.8-1.74-1.2-3.09-1.2-1.66,0-3.12.67-4.38,2.01s-2.09,2.96-2.48,4.85v13.01h-3.84Z"/>
      <path class="cls-1" d="M452.24,151.2c0-1.54-.43-2.72-1.29-3.57-.86-.84-2.1-1.26-3.73-1.26-3.04,0-5.06,1.39-6.05,4.15l-3.52-.9c.6-1.87,1.76-3.39,3.48-4.58,1.72-1.19,3.82-1.78,6.32-1.78,2.77,0,4.91.69,6.41,2.08,1.5,1.38,2.26,3.36,2.26,5.92v15.08h-3.88v-4.29c-.84,1.45-2.02,2.57-3.52,3.39-1.51.81-3.12,1.22-4.83,1.22-2.02,0-3.7-.53-5.03-1.58-1.34-1.05-2.01-2.51-2.01-4.38,0-2.23.8-3.87,2.42-4.92,1.61-1.05,3.91-1.7,6.89-1.94,2.02-.18,3.5-.41,4.45-.7.95-.29,1.5-.77,1.65-1.47v-.45ZM440.95,160.19c0,1.21.43,2.11,1.29,2.71.86.6,1.92.9,3.18.9,1.72,0,3.24-.58,4.56-1.74,1.32-1.16,2.08-2.76,2.26-4.81v-2.75c-.93,1.05-2.62,1.7-5.06,1.94-2.17.18-3.75.52-4.74,1.02-.99.5-1.49,1.41-1.49,2.73Z"/>
      <path class="cls-1" d="M458.11,175.36v-3.25h1.49c1.05,0,1.8-.25,2.24-.75s.66-1.3.66-2.42v-25.38h3.88v25.51c0,4.18-2.14,6.28-6.41,6.28h-1.85ZM462.44,140.41v-4.56h4.06v4.56h-4.06Z"/>
      <path class="cls-1" d="M482.36,166.65c-3.28,0-5.95-1.06-7.99-3.18-2.05-2.12-3.07-4.96-3.07-8.51,0-3.31,1-6.09,3-8.33,2-2.24,4.64-3.36,7.92-3.36,3.01,0,5.45.99,7.32,2.96,1.87,1.97,2.8,4.45,2.8,7.43,0,.6-.04,1.17-.14,1.72h-16.93c.09,2.62.8,4.65,2.14,6.1s3.03,2.17,5.08,2.17c2.98,0,5.09-1.6,6.32-4.79l3.52.86c-.63,1.99-1.8,3.64-3.5,4.97-1.7,1.33-3.86,1.99-6.48,1.99ZM475.49,152.47h12.92c-.15-1.81-.79-3.29-1.92-4.45-1.13-1.16-2.58-1.74-4.36-1.74s-3.21.56-4.38,1.67c-1.17,1.11-1.93,2.62-2.26,4.52Z"/>
    </g>
  </g>
</svg>